<mxfile host="app.diagrams.net" modified="2024-07-18T23:22:35.052Z" agent="Mozilla/5.0 (Windows NT 10.0; Win64; x64) AppleWebKit/537.36 (KHTML, like Gecko) Chrome/126.0.0.0 Safari/537.36" etag="51zqSEkTSroy7hsjBTnK" version="24.7.1" type="device">
  <diagram name="Page-1" id="PJTBrkYPclIM_xtbNCk6">
    <mxGraphModel dx="2537" dy="868" grid="1" gridSize="10" guides="1" tooltips="1" connect="1" arrows="1" fold="1" page="1" pageScale="1" pageWidth="850" pageHeight="1100" math="0" shadow="0">
      <root>
        <mxCell id="0" />
        <mxCell id="1" parent="0" />
        <mxCell id="V7_HpeEZSvbDlvKwvmxT-1" value="Plant&lt;div&gt;&lt;br&gt;&lt;/div&gt;" style="html=1;whiteSpace=wrap;" vertex="1" parent="1">
          <mxGeometry x="370" y="40" width="110" height="50" as="geometry" />
        </mxCell>
        <mxCell id="V7_HpeEZSvbDlvKwvmxT-2" value="Root System&lt;div&gt;&lt;br&gt;&lt;/div&gt;" style="html=1;whiteSpace=wrap;" vertex="1" parent="1">
          <mxGeometry x="210" y="160" width="110" height="50" as="geometry" />
        </mxCell>
        <mxCell id="V7_HpeEZSvbDlvKwvmxT-3" value="Shoot System" style="html=1;whiteSpace=wrap;" vertex="1" parent="1">
          <mxGeometry x="520" y="160" width="110" height="50" as="geometry" />
        </mxCell>
        <mxCell id="V7_HpeEZSvbDlvKwvmxT-4" value="" style="endArrow=classic;html=1;rounded=0;exitX=0;exitY=1;exitDx=0;exitDy=0;entryX=0.5;entryY=0;entryDx=0;entryDy=0;" edge="1" parent="1" source="V7_HpeEZSvbDlvKwvmxT-1" target="V7_HpeEZSvbDlvKwvmxT-2">
          <mxGeometry width="50" height="50" relative="1" as="geometry">
            <mxPoint x="400" y="410" as="sourcePoint" />
            <mxPoint x="450" y="360" as="targetPoint" />
          </mxGeometry>
        </mxCell>
        <mxCell id="V7_HpeEZSvbDlvKwvmxT-5" value="" style="endArrow=classic;html=1;rounded=0;exitX=1;exitY=1;exitDx=0;exitDy=0;entryX=0.5;entryY=0;entryDx=0;entryDy=0;" edge="1" parent="1" source="V7_HpeEZSvbDlvKwvmxT-1" target="V7_HpeEZSvbDlvKwvmxT-3">
          <mxGeometry width="50" height="50" relative="1" as="geometry">
            <mxPoint x="380" y="100" as="sourcePoint" />
            <mxPoint x="275" y="170" as="targetPoint" />
          </mxGeometry>
        </mxCell>
        <mxCell id="V7_HpeEZSvbDlvKwvmxT-6" value="Lateral Roots" style="rounded=0;whiteSpace=wrap;html=1;" vertex="1" parent="1">
          <mxGeometry x="210" y="280" width="120" height="60" as="geometry" />
        </mxCell>
        <mxCell id="V7_HpeEZSvbDlvKwvmxT-7" value="" style="endArrow=classic;html=1;rounded=0;exitX=0;exitY=1;exitDx=0;exitDy=0;entryX=0.5;entryY=0;entryDx=0;entryDy=0;" edge="1" parent="1" source="V7_HpeEZSvbDlvKwvmxT-2" target="V7_HpeEZSvbDlvKwvmxT-10">
          <mxGeometry width="50" height="50" relative="1" as="geometry">
            <mxPoint x="380" y="100" as="sourcePoint" />
            <mxPoint x="275" y="170" as="targetPoint" />
          </mxGeometry>
        </mxCell>
        <mxCell id="V7_HpeEZSvbDlvKwvmxT-8" value="" style="endArrow=classic;html=1;rounded=0;exitX=1;exitY=1;exitDx=0;exitDy=0;entryX=0.5;entryY=0;entryDx=0;entryDy=0;" edge="1" parent="1" source="V7_HpeEZSvbDlvKwvmxT-10">
          <mxGeometry width="50" height="50" relative="1" as="geometry">
            <mxPoint x="220" y="220" as="sourcePoint" />
            <mxPoint x="60" y="280" as="targetPoint" />
          </mxGeometry>
        </mxCell>
        <mxCell id="V7_HpeEZSvbDlvKwvmxT-9" value="" style="endArrow=classic;html=1;rounded=0;exitX=1;exitY=1;exitDx=0;exitDy=0;entryX=0.5;entryY=0;entryDx=0;entryDy=0;" edge="1" parent="1" source="V7_HpeEZSvbDlvKwvmxT-2" target="V7_HpeEZSvbDlvKwvmxT-6">
          <mxGeometry width="50" height="50" relative="1" as="geometry">
            <mxPoint x="320" y="210" as="sourcePoint" />
            <mxPoint x="160" y="280" as="targetPoint" />
          </mxGeometry>
        </mxCell>
        <mxCell id="V7_HpeEZSvbDlvKwvmxT-10" value="Taproot" style="rounded=0;whiteSpace=wrap;html=1;" vertex="1" parent="1">
          <mxGeometry y="280" width="120" height="60" as="geometry" />
        </mxCell>
        <mxCell id="V7_HpeEZSvbDlvKwvmxT-11" value="Blade" style="rounded=0;whiteSpace=wrap;html=1;" vertex="1" parent="1">
          <mxGeometry x="860" y="450" width="120" height="60" as="geometry" />
        </mxCell>
        <mxCell id="V7_HpeEZSvbDlvKwvmxT-12" value="Leaf" style="rounded=0;whiteSpace=wrap;html=1;" vertex="1" parent="1">
          <mxGeometry x="650" y="280" width="120" height="60" as="geometry" />
        </mxCell>
        <mxCell id="V7_HpeEZSvbDlvKwvmxT-13" value="Petiole" style="rounded=0;whiteSpace=wrap;html=1;" vertex="1" parent="1">
          <mxGeometry x="680" y="450" width="120" height="60" as="geometry" />
        </mxCell>
        <mxCell id="V7_HpeEZSvbDlvKwvmxT-14" value="" style="endArrow=classic;html=1;rounded=0;exitX=0;exitY=1;exitDx=0;exitDy=0;entryX=0.5;entryY=0;entryDx=0;entryDy=0;" edge="1" parent="1" source="V7_HpeEZSvbDlvKwvmxT-12" target="V7_HpeEZSvbDlvKwvmxT-13">
          <mxGeometry width="50" height="50" relative="1" as="geometry">
            <mxPoint x="490" y="100" as="sourcePoint" />
            <mxPoint x="585" y="170" as="targetPoint" />
          </mxGeometry>
        </mxCell>
        <mxCell id="V7_HpeEZSvbDlvKwvmxT-15" value="" style="endArrow=classic;html=1;rounded=0;exitX=1;exitY=1;exitDx=0;exitDy=0;entryX=0;entryY=0;entryDx=0;entryDy=0;" edge="1" parent="1" source="V7_HpeEZSvbDlvKwvmxT-12" target="V7_HpeEZSvbDlvKwvmxT-11">
          <mxGeometry width="50" height="50" relative="1" as="geometry">
            <mxPoint x="660" y="350" as="sourcePoint" />
            <mxPoint x="750" y="460" as="targetPoint" />
          </mxGeometry>
        </mxCell>
        <mxCell id="V7_HpeEZSvbDlvKwvmxT-16" value="" style="endArrow=classic;html=1;rounded=0;exitX=1;exitY=1;exitDx=0;exitDy=0;entryX=0.5;entryY=0;entryDx=0;entryDy=0;" edge="1" parent="1" source="V7_HpeEZSvbDlvKwvmxT-3" target="V7_HpeEZSvbDlvKwvmxT-12">
          <mxGeometry width="50" height="50" relative="1" as="geometry">
            <mxPoint x="670" y="360" as="sourcePoint" />
            <mxPoint x="760" y="470" as="targetPoint" />
          </mxGeometry>
        </mxCell>
        <mxCell id="V7_HpeEZSvbDlvKwvmxT-17" value="Flower" style="rounded=0;whiteSpace=wrap;html=1;" vertex="1" parent="1">
          <mxGeometry x="440" y="280" width="120" height="60" as="geometry" />
        </mxCell>
        <mxCell id="V7_HpeEZSvbDlvKwvmxT-18" value="Modified Leaves(petals)" style="rounded=0;whiteSpace=wrap;html=1;" vertex="1" parent="1">
          <mxGeometry x="320" y="450" width="120" height="60" as="geometry" />
        </mxCell>
        <mxCell id="V7_HpeEZSvbDlvKwvmxT-19" value="Apical Bud" style="rounded=0;whiteSpace=wrap;html=1;" vertex="1" parent="1">
          <mxGeometry x="870" y="280" width="120" height="60" as="geometry" />
        </mxCell>
        <mxCell id="V7_HpeEZSvbDlvKwvmxT-20" value="Stamens and Carpals" style="rounded=0;whiteSpace=wrap;html=1;" vertex="1" parent="1">
          <mxGeometry x="520" y="450" width="120" height="60" as="geometry" />
        </mxCell>
        <mxCell id="V7_HpeEZSvbDlvKwvmxT-21" value="" style="endArrow=classic;html=1;rounded=0;exitX=0;exitY=1;exitDx=0;exitDy=0;entryX=0.5;entryY=0;entryDx=0;entryDy=0;" edge="1" parent="1" source="V7_HpeEZSvbDlvKwvmxT-3" target="V7_HpeEZSvbDlvKwvmxT-17">
          <mxGeometry width="50" height="50" relative="1" as="geometry">
            <mxPoint x="330" y="220" as="sourcePoint" />
            <mxPoint x="280" y="290" as="targetPoint" />
          </mxGeometry>
        </mxCell>
        <mxCell id="V7_HpeEZSvbDlvKwvmxT-22" value="" style="endArrow=classic;html=1;rounded=0;exitX=0;exitY=1;exitDx=0;exitDy=0;entryX=0.5;entryY=0;entryDx=0;entryDy=0;" edge="1" parent="1" source="V7_HpeEZSvbDlvKwvmxT-17" target="V7_HpeEZSvbDlvKwvmxT-18">
          <mxGeometry width="50" height="50" relative="1" as="geometry">
            <mxPoint x="530" y="220" as="sourcePoint" />
            <mxPoint x="510" y="290" as="targetPoint" />
          </mxGeometry>
        </mxCell>
        <mxCell id="V7_HpeEZSvbDlvKwvmxT-23" value="" style="endArrow=classic;html=1;rounded=0;exitX=1;exitY=1;exitDx=0;exitDy=0;entryX=0.5;entryY=0;entryDx=0;entryDy=0;" edge="1" parent="1" source="V7_HpeEZSvbDlvKwvmxT-17" target="V7_HpeEZSvbDlvKwvmxT-20">
          <mxGeometry width="50" height="50" relative="1" as="geometry">
            <mxPoint x="530" y="220" as="sourcePoint" />
            <mxPoint x="510" y="290" as="targetPoint" />
          </mxGeometry>
        </mxCell>
        <mxCell id="V7_HpeEZSvbDlvKwvmxT-24" value="" style="endArrow=classic;html=1;rounded=0;exitX=1;exitY=1;exitDx=0;exitDy=0;entryX=0;entryY=0;entryDx=0;entryDy=0;" edge="1" parent="1" source="V7_HpeEZSvbDlvKwvmxT-3" target="V7_HpeEZSvbDlvKwvmxT-19">
          <mxGeometry width="50" height="50" relative="1" as="geometry">
            <mxPoint x="640" y="220" as="sourcePoint" />
            <mxPoint x="720" y="290" as="targetPoint" />
          </mxGeometry>
        </mxCell>
        <mxCell id="V7_HpeEZSvbDlvKwvmxT-25" value="&lt;span style=&quot;font-weight: normal;&quot;&gt;&lt;font style=&quot;font-size: 8px;&quot;&gt;Has A&lt;/font&gt;&lt;/span&gt;" style="text;strokeColor=none;fillColor=none;html=1;fontSize=24;fontStyle=1;verticalAlign=middle;align=center;rotation=-25;" vertex="1" parent="1">
          <mxGeometry x="100" y="215.31" width="80" height="20" as="geometry" />
        </mxCell>
        <mxCell id="V7_HpeEZSvbDlvKwvmxT-26" value="&lt;span style=&quot;font-weight: normal;&quot;&gt;&lt;font style=&quot;font-size: 8px;&quot;&gt;Has A&lt;/font&gt;&lt;/span&gt;" style="text;strokeColor=none;fillColor=none;html=1;fontSize=24;fontStyle=1;verticalAlign=middle;align=center;rotation=-30;" vertex="1" parent="1">
          <mxGeometry x="270" y="100" width="80" height="20" as="geometry" />
        </mxCell>
        <mxCell id="V7_HpeEZSvbDlvKwvmxT-27" value="&lt;span style=&quot;font-weight: normal;&quot;&gt;&lt;font style=&quot;font-size: 8px;&quot;&gt;Has A&lt;/font&gt;&lt;/span&gt;" style="text;strokeColor=none;fillColor=none;html=1;fontSize=24;fontStyle=1;verticalAlign=middle;align=center;rotation=-45;" vertex="1" parent="1">
          <mxGeometry x="240" y="230" width="80" height="20" as="geometry" />
        </mxCell>
        <mxCell id="V7_HpeEZSvbDlvKwvmxT-28" value="&lt;span style=&quot;font-weight: normal;&quot;&gt;&lt;font style=&quot;font-size: 8px;&quot;&gt;Has A&lt;/font&gt;&lt;/span&gt;" style="text;strokeColor=none;fillColor=none;html=1;fontSize=24;fontStyle=1;verticalAlign=middle;align=center;rotation=35;" vertex="1" parent="1">
          <mxGeometry x="500" y="100" width="80" height="20" as="geometry" />
        </mxCell>
        <mxCell id="V7_HpeEZSvbDlvKwvmxT-29" value="&lt;span style=&quot;font-weight: normal;&quot;&gt;&lt;font style=&quot;font-size: 8px;&quot;&gt;Has A&lt;/font&gt;&lt;/span&gt;" style="text;strokeColor=none;fillColor=none;html=1;fontSize=24;fontStyle=1;verticalAlign=middle;align=center;rotation=-70;" vertex="1" parent="1">
          <mxGeometry x="460" y="215.31" width="80" height="20" as="geometry" />
        </mxCell>
        <mxCell id="V7_HpeEZSvbDlvKwvmxT-30" value="&lt;span style=&quot;font-weight: normal;&quot;&gt;&lt;font style=&quot;font-size: 8px;&quot;&gt;Has A&lt;/font&gt;&lt;/span&gt;" style="text;strokeColor=none;fillColor=none;html=1;fontSize=24;fontStyle=1;verticalAlign=middle;align=center;rotation=-60;" vertex="1" parent="1">
          <mxGeometry x="360" y="370" width="80" height="20" as="geometry" />
        </mxCell>
        <mxCell id="V7_HpeEZSvbDlvKwvmxT-31" value="&lt;span style=&quot;font-weight: normal;&quot;&gt;&lt;font style=&quot;font-size: 8px;&quot;&gt;Has A&lt;/font&gt;&lt;/span&gt;" style="text;strokeColor=none;fillColor=none;html=1;fontSize=24;fontStyle=1;verticalAlign=middle;align=center;rotation=75;" vertex="1" parent="1">
          <mxGeometry x="540" y="380" width="80" height="20" as="geometry" />
        </mxCell>
        <mxCell id="V7_HpeEZSvbDlvKwvmxT-32" value="&lt;span style=&quot;font-weight: normal;&quot;&gt;&lt;font style=&quot;font-size: 8px;&quot;&gt;Has A&lt;/font&gt;&lt;/span&gt;" style="text;strokeColor=none;fillColor=none;html=1;fontSize=24;fontStyle=1;verticalAlign=middle;align=center;rotation=45;" vertex="1" parent="1">
          <mxGeometry x="650" y="230" width="80" height="20" as="geometry" />
        </mxCell>
        <mxCell id="V7_HpeEZSvbDlvKwvmxT-33" value="&lt;span style=&quot;font-weight: normal;&quot;&gt;&lt;font style=&quot;font-size: 8px;&quot;&gt;Has A&lt;/font&gt;&lt;/span&gt;" style="text;strokeColor=none;fillColor=none;html=1;fontSize=24;fontStyle=1;verticalAlign=middle;align=center;rotation=15;" vertex="1" parent="1">
          <mxGeometry x="760" y="230" width="80" height="20" as="geometry" />
        </mxCell>
        <mxCell id="V7_HpeEZSvbDlvKwvmxT-34" value="&lt;span style=&quot;font-weight: normal;&quot;&gt;&lt;font style=&quot;font-size: 8px;&quot;&gt;Has A&lt;/font&gt;&lt;/span&gt;" style="text;strokeColor=none;fillColor=none;html=1;fontSize=24;fontStyle=1;verticalAlign=middle;align=center;rotation=45;" vertex="1" parent="1">
          <mxGeometry x="670" y="380" width="80" height="20" as="geometry" />
        </mxCell>
        <mxCell id="V7_HpeEZSvbDlvKwvmxT-35" value="&lt;span style=&quot;font-weight: normal;&quot;&gt;&lt;font style=&quot;font-size: 8px;&quot;&gt;Has A&lt;/font&gt;&lt;/span&gt;" style="text;strokeColor=none;fillColor=none;html=1;fontSize=24;fontStyle=1;verticalAlign=middle;align=center;rotation=45;" vertex="1" parent="1">
          <mxGeometry x="780" y="370" width="80" height="20" as="geometry" />
        </mxCell>
        <mxCell id="V7_HpeEZSvbDlvKwvmxT-36" value="Herbs" style="html=1;whiteSpace=wrap;" vertex="1" parent="1">
          <mxGeometry x="700" y="150" width="110" height="50" as="geometry" />
        </mxCell>
        <mxCell id="V7_HpeEZSvbDlvKwvmxT-37" value="Trees" style="html=1;whiteSpace=wrap;" vertex="1" parent="1">
          <mxGeometry x="5" y="165.31" width="110" height="50" as="geometry" />
        </mxCell>
        <mxCell id="V7_HpeEZSvbDlvKwvmxT-38" value="Shrubs" style="html=1;whiteSpace=wrap;" vertex="1" parent="1">
          <mxGeometry x="840" y="150" width="110" height="50" as="geometry" />
        </mxCell>
        <mxCell id="V7_HpeEZSvbDlvKwvmxT-39" value="Climbers" style="html=1;whiteSpace=wrap;" vertex="1" parent="1">
          <mxGeometry x="1070" y="150" width="110" height="50" as="geometry" />
        </mxCell>
        <mxCell id="V7_HpeEZSvbDlvKwvmxT-40" value="Creeprs" style="html=1;whiteSpace=wrap;" vertex="1" parent="1">
          <mxGeometry x="-170" y="165.31" width="110" height="50" as="geometry" />
        </mxCell>
        <mxCell id="V7_HpeEZSvbDlvKwvmxT-41" value="Abelia" style="html=1;whiteSpace=wrap;" vertex="1" parent="1">
          <mxGeometry x="1100" y="285" width="110" height="50" as="geometry" />
        </mxCell>
        <mxCell id="V7_HpeEZSvbDlvKwvmxT-42" value="Acer" style="html=1;whiteSpace=wrap;" vertex="1" parent="1">
          <mxGeometry x="1340" y="300" width="110" height="50" as="geometry" />
        </mxCell>
        <mxCell id="V7_HpeEZSvbDlvKwvmxT-43" value="" style="endArrow=classic;html=1;rounded=0;exitX=0;exitY=1;exitDx=0;exitDy=0;entryX=0.5;entryY=0;entryDx=0;entryDy=0;" edge="1" parent="1" source="V7_HpeEZSvbDlvKwvmxT-38" target="V7_HpeEZSvbDlvKwvmxT-41">
          <mxGeometry width="50" height="50" relative="1" as="geometry">
            <mxPoint x="1298" y="-30" as="sourcePoint" />
            <mxPoint x="1165" y="190" as="targetPoint" />
          </mxGeometry>
        </mxCell>
        <mxCell id="V7_HpeEZSvbDlvKwvmxT-44" value="" style="endArrow=classic;html=1;rounded=0;exitX=1;exitY=1;exitDx=0;exitDy=0;entryX=0.5;entryY=0;entryDx=0;entryDy=0;" edge="1" parent="1" source="V7_HpeEZSvbDlvKwvmxT-38" target="V7_HpeEZSvbDlvKwvmxT-42">
          <mxGeometry width="50" height="50" relative="1" as="geometry">
            <mxPoint x="1110" y="240" as="sourcePoint" />
            <mxPoint x="1065" y="340" as="targetPoint" />
          </mxGeometry>
        </mxCell>
        <mxCell id="V7_HpeEZSvbDlvKwvmxT-45" value="" style="endArrow=classic;html=1;rounded=0;exitX=0;exitY=0.5;exitDx=0;exitDy=0;entryX=0.5;entryY=0;entryDx=0;entryDy=0;" edge="1" parent="1" source="V7_HpeEZSvbDlvKwvmxT-1" target="V7_HpeEZSvbDlvKwvmxT-37">
          <mxGeometry width="50" height="50" relative="1" as="geometry">
            <mxPoint x="380" y="100" as="sourcePoint" />
            <mxPoint x="275" y="170" as="targetPoint" />
          </mxGeometry>
        </mxCell>
        <mxCell id="V7_HpeEZSvbDlvKwvmxT-46" value="" style="endArrow=classic;html=1;rounded=0;exitX=-0.006;exitY=0.323;exitDx=0;exitDy=0;entryX=0.5;entryY=0;entryDx=0;entryDy=0;exitPerimeter=0;" edge="1" parent="1" source="V7_HpeEZSvbDlvKwvmxT-1" target="V7_HpeEZSvbDlvKwvmxT-40">
          <mxGeometry width="50" height="50" relative="1" as="geometry">
            <mxPoint x="380" y="75" as="sourcePoint" />
            <mxPoint x="70" y="175" as="targetPoint" />
          </mxGeometry>
        </mxCell>
        <mxCell id="V7_HpeEZSvbDlvKwvmxT-47" value="" style="endArrow=classic;html=1;rounded=0;exitX=1;exitY=0.5;exitDx=0;exitDy=0;entryX=0.5;entryY=0;entryDx=0;entryDy=0;" edge="1" parent="1" source="V7_HpeEZSvbDlvKwvmxT-1" target="V7_HpeEZSvbDlvKwvmxT-36">
          <mxGeometry width="50" height="50" relative="1" as="geometry">
            <mxPoint x="490" y="100" as="sourcePoint" />
            <mxPoint x="585" y="170" as="targetPoint" />
          </mxGeometry>
        </mxCell>
        <mxCell id="V7_HpeEZSvbDlvKwvmxT-48" value="" style="endArrow=classic;html=1;rounded=0;exitX=1;exitY=0.25;exitDx=0;exitDy=0;entryX=0.5;entryY=0;entryDx=0;entryDy=0;" edge="1" parent="1" source="V7_HpeEZSvbDlvKwvmxT-1" target="V7_HpeEZSvbDlvKwvmxT-38">
          <mxGeometry width="50" height="50" relative="1" as="geometry">
            <mxPoint x="490" y="75" as="sourcePoint" />
            <mxPoint x="765" y="160" as="targetPoint" />
          </mxGeometry>
        </mxCell>
        <mxCell id="V7_HpeEZSvbDlvKwvmxT-49" value="" style="endArrow=classic;html=1;rounded=0;exitX=1;exitY=0;exitDx=0;exitDy=0;entryX=0.545;entryY=0.02;entryDx=0;entryDy=0;entryPerimeter=0;" edge="1" parent="1" source="V7_HpeEZSvbDlvKwvmxT-1" target="V7_HpeEZSvbDlvKwvmxT-39">
          <mxGeometry width="50" height="50" relative="1" as="geometry">
            <mxPoint x="490" y="63" as="sourcePoint" />
            <mxPoint x="905" y="160" as="targetPoint" />
          </mxGeometry>
        </mxCell>
        <mxCell id="V7_HpeEZSvbDlvKwvmxT-50" value="&lt;span style=&quot;font-weight: normal;&quot;&gt;&lt;font style=&quot;font-size: 8px;&quot;&gt;Is a&lt;/font&gt;&lt;/span&gt;" style="text;strokeColor=none;fillColor=none;html=1;fontSize=24;fontStyle=1;verticalAlign=middle;align=center;rotation=-15;" vertex="1" parent="1">
          <mxGeometry x="70" y="90" width="80" height="20" as="geometry" />
        </mxCell>
        <mxCell id="V7_HpeEZSvbDlvKwvmxT-52" value="&lt;span style=&quot;font-weight: normal;&quot;&gt;&lt;font style=&quot;font-size: 8px;&quot;&gt;Is a&lt;/font&gt;&lt;/span&gt;" style="text;strokeColor=none;fillColor=none;html=1;fontSize=24;fontStyle=1;verticalAlign=middle;align=center;rotation=-15;" vertex="1" parent="1">
          <mxGeometry x="110" y="110" width="80" height="20" as="geometry" />
        </mxCell>
        <mxCell id="V7_HpeEZSvbDlvKwvmxT-53" value="&lt;span style=&quot;font-weight: normal;&quot;&gt;&lt;font style=&quot;font-size: 8px;&quot;&gt;Is a&lt;/font&gt;&lt;/span&gt;" style="text;strokeColor=none;fillColor=none;html=1;fontSize=24;fontStyle=1;verticalAlign=middle;align=center;rotation=-15;" vertex="1" parent="1">
          <mxGeometry x="80" y="100" width="80" height="20" as="geometry" />
        </mxCell>
        <mxCell id="V7_HpeEZSvbDlvKwvmxT-54" value="&lt;span style=&quot;font-weight: normal;&quot;&gt;&lt;font style=&quot;font-size: 8px;&quot;&gt;Is a&lt;/font&gt;&lt;/span&gt;" style="text;strokeColor=none;fillColor=none;html=1;fontSize=24;fontStyle=1;verticalAlign=middle;align=center;rotation=15;" vertex="1" parent="1">
          <mxGeometry x="930" y="100" width="80" height="20" as="geometry" />
        </mxCell>
        <mxCell id="V7_HpeEZSvbDlvKwvmxT-57" value="&lt;span style=&quot;font-weight: normal;&quot;&gt;&lt;font style=&quot;font-size: 8px;&quot;&gt;Is a&lt;/font&gt;&lt;/span&gt;" style="text;strokeColor=none;fillColor=none;html=1;fontSize=24;fontStyle=1;verticalAlign=middle;align=center;rotation=15;" vertex="1" parent="1">
          <mxGeometry x="750" y="100" width="80" height="20" as="geometry" />
        </mxCell>
        <mxCell id="V7_HpeEZSvbDlvKwvmxT-59" value="&lt;span style=&quot;font-weight: normal;&quot;&gt;&lt;font style=&quot;font-size: 8px;&quot;&gt;Is a&lt;/font&gt;&lt;/span&gt;" style="text;strokeColor=none;fillColor=none;html=1;fontSize=24;fontStyle=1;verticalAlign=middle;align=center;rotation=15;" vertex="1" parent="1">
          <mxGeometry x="670" y="110" width="80" height="20" as="geometry" />
        </mxCell>
        <mxCell id="V7_HpeEZSvbDlvKwvmxT-61" value="&lt;span style=&quot;font-weight: normal;&quot;&gt;&lt;font style=&quot;font-size: 8px;&quot;&gt;Is a&lt;/font&gt;&lt;/span&gt;" style="text;strokeColor=none;fillColor=none;html=1;fontSize=24;fontStyle=1;verticalAlign=middle;align=center;rotation=15;" vertex="1" parent="1">
          <mxGeometry x="1010" y="200" width="80" height="20" as="geometry" />
        </mxCell>
        <mxCell id="V7_HpeEZSvbDlvKwvmxT-62" value="&lt;span style=&quot;font-weight: normal;&quot;&gt;&lt;font style=&quot;font-size: 8px;&quot;&gt;Is a&lt;/font&gt;&lt;/span&gt;" style="text;strokeColor=none;fillColor=none;html=1;fontSize=24;fontStyle=1;verticalAlign=middle;align=center;rotation=15;" vertex="1" parent="1">
          <mxGeometry x="1000" y="230" width="80" height="20" as="geometry" />
        </mxCell>
      </root>
    </mxGraphModel>
  </diagram>
</mxfile>
